<svg id="Слой_1" data-name="Слой 1" xmlns="http://www.w3.org/2000/svg" viewBox="0 0 240 64"><defs><style>.cls-1{fill:#e5261f;}.cls-2{writing-mode:tb;text-orientation:upright;glyph-orientation-vertical:0deg;}</style></defs><title>Монтажная область 1</title><path d="M2.68,58.69v-1a7.32,7.32,0,0,0,3.53-1.22A6.44,6.44,0,0,0,8.45,53a23.6,23.6,0,0,0,.78-6.86V17.61a10.18,10.18,0,0,0-.29-2.83,1.87,1.87,0,0,0-1.12-1.25,7.58,7.58,0,0,0-2.49-.39v-1c.86,0,2,.07,3.4.1s2.89.06,4.45.06,3.08,0,4.55-.06,2.69-.07,3.67-.1v1a7.69,7.69,0,0,0-2.47.39,1.87,1.87,0,0,0-1.15,1.25,10.26,10.26,0,0,0-.28,2.83V41.25c0,1.64-.07,3.25-.19,4.81a20.94,20.94,0,0,1-.7,4.16,11.08,11.08,0,0,1-4.5,6C9.81,57.88,6.66,58.69,2.68,58.69Z"/><path d="M44.17,32.69V37H25.4V32.69Z"/><path class="cls-1" d="M93.42,12.1v1a7.65,7.65,0,0,0-2.5.39,1.87,1.87,0,0,0-1.12,1.25,10.26,10.26,0,0,0-.28,2.83V43.4a10.34,10.34,0,0,0,.28,2.81,1.79,1.79,0,0,0,1.12,1.25,9.1,9.1,0,0,0,2.5.42v1c-1-.07-2.2-.12-3.67-.13s-3,0-4.5,0-3.22,0-4.68,0-2.63.06-3.53.13v-1a10.54,10.54,0,0,0,2.67-.42,1.88,1.88,0,0,0,1.23-1.25,9.74,9.74,0,0,0,.31-2.81V15.27h.36L68.72,49h-.84l-14-33.49V40.39a23.16,23.16,0,0,0,.32,4.39A3.13,3.13,0,0,0,55.53,47a8.74,8.74,0,0,0,3.36.91v1c-.66-.07-1.53-.12-2.6-.13l-3,0-2.44,0a18.55,18.55,0,0,0-2.08.13v-1A5.61,5.61,0,0,0,51.24,47a3.2,3.2,0,0,0,1.12-2.05A21,21,0,0,0,52.65,41V17.61a10.18,10.18,0,0,0-.29-2.83,1.88,1.88,0,0,0-1.14-1.25,7.75,7.75,0,0,0-2.47-.39v-1l2.08.1c.83,0,1.64.06,2.44.06,1.49,0,3,0,4.4-.06l3.82-.1L72.41,38.46l-1.3,1.2,10.45-27.4h3.69q2.3,0,4.5-.06C91.22,12.17,92.44,12.13,93.42,12.1Z"/><path class="cls-1" d="M121.65,21.46V43.25a6.43,6.43,0,0,0,.73,3.46,2.87,2.87,0,0,0,2.6,1.11v1.1a31.75,31.75,0,0,0-3.23-.16c-1.45,0-2.8.05-4,.16a21.46,21.46,0,0,0-3.54.57V44.81a7.76,7.76,0,0,1-3.45,3.72,10.85,10.85,0,0,1-4.92,1.11,9.26,9.26,0,0,1-3.54-.57,5.77,5.77,0,0,1-2.13-1.45A5.69,5.69,0,0,1,98.88,45a19,19,0,0,1-.37-4.16V27.7a6.66,6.66,0,0,0-.7-3.46,2.88,2.88,0,0,0-2.63-1.12V22c1.11.11,2.19.16,3.23.16q2.18,0,4.08-.18a30.81,30.81,0,0,0,3.51-.55V43a10.43,10.43,0,0,0,.23,2.29,2.73,2.73,0,0,0,.91,1.53,3.11,3.11,0,0,0,2,.55,4.52,4.52,0,0,0,3.56-1.75,6.38,6.38,0,0,0,1.48-4.29V27.7a6.66,6.66,0,0,0-.7-3.46,2.87,2.87,0,0,0-2.63-1.12V22c1.11.11,2.19.16,3.23.16,1.45,0,2.82-.06,4.08-.18A30.11,30.11,0,0,0,121.65,21.46Z"/><path class="cls-1" d="M137.82,8.2V44.08a4.59,4.59,0,0,0,.7,3,3.15,3.15,0,0,0,2.42.78v1.1c-.66,0-1.62-.08-2.88-.13s-2.56-.08-3.88-.08-2.71,0-4.08.08-2.4.09-3.09.13v-1.1a3.48,3.48,0,0,0,2.57-.78,4.32,4.32,0,0,0,.75-3V14.44a6.66,6.66,0,0,0-.7-3.46A2.85,2.85,0,0,0,127,9.86V8.77c1.11.11,2.18.16,3.22.16,1.42,0,2.77-.06,4.06-.18A28.18,28.18,0,0,0,137.82,8.2Zm17,13.83v1a9.33,9.33,0,0,0-3.22,1.35,22,22,0,0,0-3.28,2.66l-4,4.16.52-1,8.89,14.87a12.23,12.23,0,0,0,1.2,1.66,3.35,3.35,0,0,0,1.51,1v1.1c-.52,0-1.3-.08-2.34-.13s-2.08-.08-3.12-.08c-1.29,0-2.57,0-3.85.08s-2.24.09-2.86.13v-1.1a1.64,1.64,0,0,0,1.4-.49,1.1,1.1,0,0,0-.1-1.27l-5.15-9.31a3.43,3.43,0,0,0-1.22-1.28,4.19,4.19,0,0,0-1.59-.33v-1a8.65,8.65,0,0,0,1.9-.37,3.46,3.46,0,0,0,1.48-1L144.89,29q1.77-1.66,1.77-3a2.42,2.42,0,0,0-1.12-2.08,5.32,5.32,0,0,0-2.93-.83V22l3.17.11c1.14,0,2.11.05,2.91.05l2.21,0,2.21-.05C153.8,22.09,154.36,22.07,154.77,22Z"/><path class="cls-1" d="M164.34,49.28q-3.48,0-5-1.82A6.56,6.56,0,0,1,157.74,43a6.12,6.12,0,0,1,1-3.64,8,8,0,0,1,2.63-2.31,19.22,19.22,0,0,1,3.4-1.51c1.2-.4,2.34-.8,3.44-1.2A10.06,10.06,0,0,0,170.87,33a2.39,2.39,0,0,0,1-2V27a6.4,6.4,0,0,0-.44-2.42,3.46,3.46,0,0,0-1.35-1.63,4.42,4.42,0,0,0-2.37-.58,7.85,7.85,0,0,0-2.08.29,3.79,3.79,0,0,0-1.71,1,4.79,4.79,0,0,1,2.26,1.59,3.93,3.93,0,0,1,.8,2.42,3.47,3.47,0,0,1-1.22,2.8,4.27,4.27,0,0,1-2.88,1,3.46,3.46,0,0,1-2.84-1.17,4.31,4.31,0,0,1-1-2.83,4,4,0,0,1,.75-2.5A8.75,8.75,0,0,1,162,23.07a12.86,12.86,0,0,1,3.51-1.3,20.12,20.12,0,0,1,4.45-.47,17.29,17.29,0,0,1,4.31.5,7,7,0,0,1,3.23,1.79A5.84,5.84,0,0,1,179,26.53a22.27,22.27,0,0,1,.36,4.39V45.07a4.37,4.37,0,0,0,.26,1.77.92.92,0,0,0,.88.52,2,2,0,0,0,1-.26,6,6,0,0,0,.89-.63l.52.89a7.77,7.77,0,0,1-2.53,1.43,9.71,9.71,0,0,1-3.19.49c-2.08,0-3.46-.42-4.14-1.27A4.85,4.85,0,0,1,172,45.07a8.66,8.66,0,0,1-3.2,3.17A9.17,9.17,0,0,1,164.34,49.28Zm4-3.33a3.71,3.71,0,0,0,1.84-.47,5.16,5.16,0,0,0,1.69-1.66V33.16a5.26,5.26,0,0,1-1.74,1.74c-.75.47-1.51,1-2.29,1.51a6.94,6.94,0,0,0-1.95,2.05,6.26,6.26,0,0,0-.78,3.33,4.47,4.47,0,0,0,.94,3.2A3.06,3.06,0,0,0,168.35,46Z"/><path class="cls-1" d="M194.71,21.3a12.17,12.17,0,0,1,3.82.55,9.29,9.29,0,0,1,2.37,1.07c1.18.79,1.9.27,2.18-1.56h1.09c-.07,1-.12,2.15-.15,3.56s-.06,3.27-.06,5.59h-1.09a16.26,16.26,0,0,0-1-3.8,7.58,7.58,0,0,0-2.1-3.07,5.28,5.28,0,0,0-3.56-1.19,3.82,3.82,0,0,0-2.55.86,3,3,0,0,0-1,2.47,4.21,4.21,0,0,0,.94,2.73A12.17,12.17,0,0,0,196,30.74c1,.71,2,1.47,3.1,2.26a31.33,31.33,0,0,1,4.39,3.88A7.17,7.17,0,0,1,205.26,42,6.46,6.46,0,0,1,203.91,46a8.78,8.78,0,0,1-3.56,2.68,12.53,12.53,0,0,1-4.91.93,11.15,11.15,0,0,1-2.78-.31,9.72,9.72,0,0,1-2.11-.78l-1.27-.6c-.4-.19-.78-.35-1.12-.49a.8.8,0,0,0-.91.36,3.89,3.89,0,0,0-.6,1.46h-1.09c.07-1.11.12-2.46.15-4.06s0-3.71,0-6.34h1.1a20.3,20.3,0,0,0,1.14,5,8.24,8.24,0,0,0,2.26,3.38,5.41,5.41,0,0,0,3.62,1.22,4.07,4.07,0,0,0,2.49-.86,3.32,3.32,0,0,0,1.15-2.83A5.23,5.23,0,0,0,196,41a38.11,38.11,0,0,0-3.78-3.28c-1.1-.9-2.15-1.79-3.14-2.67a12.5,12.5,0,0,1-2.42-2.92,7,7,0,0,1-.94-3.61A6.26,6.26,0,0,1,187,24.53a7.56,7.56,0,0,1,3.31-2.42A11.81,11.81,0,0,1,194.71,21.3Z"/><path class="cls-1" d="M219,8.25V26.14a7.68,7.68,0,0,1,3.51-3.77,11.33,11.33,0,0,1,5-1.07,9.88,9.88,0,0,1,3.59.55,5.28,5.28,0,0,1,2.13,1.48,5.89,5.89,0,0,1,1.27,2.55,18,18,0,0,1,.39,4.21v14a4.27,4.27,0,0,0,.76,3,3.48,3.48,0,0,0,2.57.78v1.1c-.66,0-1.66-.08-3-.13s-2.63-.08-3.87-.08-2.66,0-3.93.08-2.21.09-2.83.13v-1.1a2.65,2.65,0,0,0,2.18-.78,5,5,0,0,0,.62-3V27.91a8.41,8.41,0,0,0-.26-2.26,2.68,2.68,0,0,0-1-1.51,3.15,3.15,0,0,0-2-.55,4.75,4.75,0,0,0-3.64,1.67A6.14,6.14,0,0,0,219,29.57V44.08a4.94,4.94,0,0,0,.63,3,2.64,2.64,0,0,0,2.18.78v1.1c-.62,0-1.54-.08-2.76-.13s-2.44-.08-3.69-.08-2.71,0-4.08.08-2.4.09-3.09.13v-1.1a3.48,3.48,0,0,0,2.57-.78,4.32,4.32,0,0,0,.75-3V14.49a6.66,6.66,0,0,0-.7-3.46,2.86,2.86,0,0,0-2.62-1.11V8.82c1.11.11,2.18.16,3.22.16,1.42,0,2.77-.06,4.06-.18A26.45,26.45,0,0,0,219,8.25Z"/><text class="cls-2"/></svg>