<svg xmlns="http://www.w3.org/2000/svg" viewBox="0 0 234.4 52.59"><defs><style>.cls-1{fill:#e5261f;}.cls-2{writing-mode:tb;text-orientation:upright;glyph-orientation-vertical:0deg;}</style></defs><title>Ресурс 1</title><g id="Слой_2" data-name="Слой 2"><g id="Слой_1-2" data-name="Слой 1"><path d="M0,56.38v-1a7.25,7.25,0,0,0,4.08-1.19A6.9,6.9,0,0,0,6.57,50.4a23.64,23.64,0,0,0,.84-7V13.64a10,10,0,0,0-.32-3,2,2,0,0,0-1.27-1.3A9.2,9.2,0,0,0,3,9V7.9c.76,0,1.75.07,3,.11s2.5.05,3.84.05S12.47,8,13.72,8,16,7.94,16.83,7.9V9A9.14,9.14,0,0,0,14,9.39a2,2,0,0,0-1.27,1.3,9.64,9.64,0,0,0-.33,3v19.8c0,1.48,0,3.08,0,4.81s-.12,3.41-.24,5a28.78,28.78,0,0,1-.63,4.27,11.73,11.73,0,0,1-3.86,6.31A11.43,11.43,0,0,1,0,56.38Z" transform="translate(0 -3.79)"/><path d="M41.34,30.08v3.14H21.81V30.08Z" transform="translate(0 -3.79)"/><path class="cls-1" d="M89.93,7.9V9a9.14,9.14,0,0,0-2.79.41,2,2,0,0,0-1.27,1.3,9.7,9.7,0,0,0-.32,3V40.47a9.82,9.82,0,0,0,.32,2.93,2,2,0,0,0,1.27,1.29,11.26,11.26,0,0,0,2.79.44v1.08c-.83-.07-1.87-.12-3.11-.14l-3.76,0-4,0c-1.23,0-2.22.07-3,.14V45.13a11.26,11.26,0,0,0,2.79-.44,2,2,0,0,0,1.27-1.29,9.82,9.82,0,0,0,.32-2.93V10.71l.22.17L67.47,46.48h-.86L53,11.36V39.93A10.7,10.7,0,0,0,53.32,43a2.48,2.48,0,0,0,1.41,1.57,9.66,9.66,0,0,0,3.17.57v1.08c-.65-.07-1.5-.12-2.55-.14l-3,0-2.74,0c-.92,0-1.68.07-2.3.14V45.13a7.73,7.73,0,0,0,2.79-.57A2.39,2.39,0,0,0,51.4,43a11.19,11.19,0,0,0,.33-3.06V13.64a9.64,9.64,0,0,0-.33-3,2,2,0,0,0-1.27-1.3A9.14,9.14,0,0,0,47.34,9V7.9c.62,0,1.38.07,2.3.11s1.83.05,2.74.05S54,8,54.84,8,56.4,7.94,57,7.9L69.26,40.26l-.92.43L80.51,8.06h2.55c1.26,0,2.51,0,3.76-.05S89.1,7.94,89.93,7.9Z" transform="translate(0 -3.79)"/><path class="cls-1" d="M117.74,17.75V40.37a5.91,5.91,0,0,0,.89,3.59,3.84,3.84,0,0,0,3.22,1.17v1.13c-1.12-.1-2.23-.16-3.35-.16a28.61,28.61,0,0,0-3,.16,11.4,11.4,0,0,0-2.63.6V40.47a9.56,9.56,0,0,1-3.81,5A9.71,9.71,0,0,1,104,47a9.13,9.13,0,0,1-3.3-.54,6.17,6.17,0,0,1-2.33-1.52A5.72,5.72,0,0,1,97,42.1a20.63,20.63,0,0,1-.38-4.28V24.24a6.12,6.12,0,0,0-.86-3.6c-.58-.77-1.66-1.16-3.25-1.16V18.34c1.16.11,2.27.16,3.36.16a24.18,24.18,0,0,0,3-.18,15.63,15.63,0,0,0,2.62-.57V39a21,21,0,0,0,.22,3.09,4,4,0,0,0,1.08,2.27,3.87,3.87,0,0,0,2.82.87,6.22,6.22,0,0,0,5.24-2.85,11.47,11.47,0,0,0,2.06-7V24.24a6.12,6.12,0,0,0-.86-3.6c-.58-.77-1.66-1.16-3.25-1.16V18.34c1.15.11,2.27.16,3.35.16a24.23,24.23,0,0,0,3-.18A15.85,15.85,0,0,0,117.74,17.75Z" transform="translate(0 -3.79)"/><path class="cls-1" d="M133.11,3.79V41.18a4.39,4.39,0,0,0,.81,3.08,3.82,3.82,0,0,0,2.76.81v1.14l-2.57-.14c-1.14,0-2.28-.08-3.44-.08s-2.47,0-3.73.08l-2.81.14V45.07a4.87,4.87,0,0,0,3.16-.81,4,4,0,0,0,1-3.08V10.28a6,6,0,0,0-.87-3.6c-.58-.77-1.66-1.16-3.24-1.16V4.38c1.15.11,2.27.16,3.35.16a24,24,0,0,0,3-.18A16,16,0,0,0,133.11,3.79Zm17.2,14.55v1.08a6.6,6.6,0,0,0-2.54.74A8.92,8.92,0,0,0,145.44,22l-7.63,8,.76-1.52,10.07,13.8a11.23,11.23,0,0,0,1.76,2,3.85,3.85,0,0,0,2,.86v1.14c-.4,0-1-.08-1.87-.14S148.87,46,148,46c-1.12,0-2.25,0-3.41.08l-2.59.14V45.07a1.83,1.83,0,0,0,1.51-.54c.29-.36.23-.79-.16-1.3l-6.22-9.09a6,6,0,0,0-1.87-1.89,5.85,5.85,0,0,0-2.41-.49V30.68a9.36,9.36,0,0,0,2.82-.73,7,7,0,0,0,2-1.54l4-4.17c1.15-1.19,1.73-2.14,1.73-2.84a1.58,1.58,0,0,0-1.11-1.52,7.82,7.82,0,0,0-2.9-.46V18.34l3.17.14c1.17.05,2.15.08,3,.08.61,0,1.2,0,1.78,0s1.12,0,1.63-.08S150,18.38,150.31,18.34Z" transform="translate(0 -3.79)"/><path class="cls-1" d="M161.08,46.59c-2.34,0-4.05-.59-5.11-1.76a6.66,6.66,0,0,1-1.6-4.68,6.1,6.1,0,0,1,1.11-3.76A8.75,8.75,0,0,1,158.32,34,24.62,24.62,0,0,1,162,32.33c1.28-.45,2.49-.89,3.65-1.33a11.9,11.9,0,0,0,2.84-1.46,2.44,2.44,0,0,0,1.11-2.05V24.13a7.13,7.13,0,0,0-.68-3.46,3.38,3.38,0,0,0-1.81-1.6,7.56,7.56,0,0,0-2.54-.4,11.8,11.8,0,0,0-2.9.38,4.25,4.25,0,0,0-2.46,1.57A3.16,3.16,0,0,1,161,21.7a3.2,3.2,0,0,1,.76,2.22,2.74,2.74,0,0,1-.86,2.13,3.16,3.16,0,0,1-2.22.79,2.66,2.66,0,0,1-2.3-1,3.72,3.72,0,0,1-.73-2.25,3.48,3.48,0,0,1,.7-2.27,8.34,8.34,0,0,1,1.79-1.62,11.65,11.65,0,0,1,3.22-1.49,14.6,14.6,0,0,1,4.46-.63,12.35,12.35,0,0,1,3.79.52,6.71,6.71,0,0,1,2.59,1.49A6,6,0,0,1,174,22.75a19.92,19.92,0,0,1,.44,4.47v15a3.69,3.69,0,0,0,.38,1.92,1.39,1.39,0,0,0,1.29.62,2.7,2.7,0,0,0,1.33-.32,6.81,6.81,0,0,0,1.11-.81l.59.92A17.84,17.84,0,0,1,177,46a5.72,5.72,0,0,1-2.76.57c-1.88,0-3.12-.49-3.73-1.46a6.12,6.12,0,0,1-.92-3.36,9.14,9.14,0,0,1-3.93,3.84A11.11,11.11,0,0,1,161.08,46.59Zm2.38-2.17a6.13,6.13,0,0,0,3.2-.94,9.17,9.17,0,0,0,2.92-3.17V29.71a5.46,5.46,0,0,1-2.52,1.89c-1.13.47-2.31,1-3.52,1.54a9.79,9.79,0,0,0-3.11,2.27,5.92,5.92,0,0,0-1.3,4.09,5,5,0,0,0,1.25,3.71A4.24,4.24,0,0,0,163.46,44.42Z" transform="translate(0 -3.79)"/><path class="cls-1" d="M190.46,17.58a8.69,8.69,0,0,1,3.68.71,10.2,10.2,0,0,1,2.22,1.3q1.78,1.45,2.16-1.95h1.25c-.07,1-.13,2.21-.16,3.6s-.06,3.25-.06,5.6h-1.24a17.87,17.87,0,0,0-1.11-3.9,7.66,7.66,0,0,0-2.3-3.11,6.13,6.13,0,0,0-4-1.22,4.78,4.78,0,0,0-3.17,1.06,3.83,3.83,0,0,0-1.27,3.11,4.22,4.22,0,0,0,1,2.79A11.08,11.08,0,0,0,190,27.73l3.41,2.19A37.54,37.54,0,0,1,198.69,34a7.13,7.13,0,0,1,2.16,5.41,6.59,6.59,0,0,1-1.3,4.17,8.08,8.08,0,0,1-3.38,2.54,11.74,11.74,0,0,1-4.57.87,13.47,13.47,0,0,1-2.25-.19,11.51,11.51,0,0,1-2-.57,11,11,0,0,1-1.11-.65q-.56-.37-1.11-.81a.63.63,0,0,0-1,0,3.6,3.6,0,0,0-.65,1.81h-1.24c.07-1.16.12-2.56.16-4.22s0-3.86,0-6.6h1.25a30.86,30.86,0,0,0,1.08,5.3A7.29,7.29,0,0,0,187,44.61a6.37,6.37,0,0,0,4.22,1.27,5.51,5.51,0,0,0,3.22-1.13c1.06-.76,1.6-2.09,1.6-4a4.93,4.93,0,0,0-1.74-3.89,34.29,34.29,0,0,0-4.38-3.19q-1.95-1.24-3.65-2.49a11.16,11.16,0,0,1-2.76-2.82,6.64,6.64,0,0,1-1.06-3.78,6.65,6.65,0,0,1,1.11-4,6.47,6.47,0,0,1,2.95-2.27A10.59,10.59,0,0,1,190.46,17.58Z" transform="translate(0 -3.79)"/><path class="cls-1" d="M213.46,3.84V24.08A9.34,9.34,0,0,1,217.38,19a10.66,10.66,0,0,1,5.28-1.41,9.44,9.44,0,0,1,3.43.55,6.19,6.19,0,0,1,2.3,1.51,6.08,6.08,0,0,1,1.46,2.71,17.52,17.52,0,0,1,.44,4.38V41.18a4,4,0,0,0,.94,3.08,4.89,4.89,0,0,0,3.17.81v1.14l-2.81-.14c-1.27,0-2.49-.08-3.68-.08s-2.36,0-3.49.08l-2.57.14V45.07a3.81,3.81,0,0,0,2.75-.81,4.34,4.34,0,0,0,.82-3.08V25.54a16.27,16.27,0,0,0-.27-3.08,4,4,0,0,0-1.22-2.28,4.22,4.22,0,0,0-2.9-.86,6.6,6.6,0,0,0-5.43,2.73,11.08,11.08,0,0,0-2.14,7.06V41.18a4.39,4.39,0,0,0,.81,3.08,3.82,3.82,0,0,0,2.76.81v1.14l-2.57-.14c-1.14,0-2.3-.08-3.49-.08s-2.42,0-3.68.08l-2.81.14V45.07a4.87,4.87,0,0,0,3.16-.81,4,4,0,0,0,1-3.08V10.33a6,6,0,0,0-.87-3.59c-.57-.78-1.66-1.17-3.24-1.17V4.44c1.15.1,2.27.16,3.35.16a22.15,22.15,0,0,0,3-.19A16,16,0,0,0,213.46,3.84Z" transform="translate(0 -3.79)"/><text class="cls-2" y="-3.79"/></g></g></svg>