<?xml version="1.0" encoding="utf-8"?>
<!-- Generator: Adobe Illustrator 23.0.3, SVG Export Plug-In . SVG Version: 6.00 Build 0)  -->
<svg version="1.1" id="Слой_1" xmlns="http://www.w3.org/2000/svg" xmlns:xlink="http://www.w3.org/1999/xlink" x="0px" y="0px"
	 viewBox="0 0 54 54" style="enable-background:new 0 0 54 54;" xml:space="preserve">
<style type="text/css">
	.st0{fill:none;stroke:#E5261F;stroke-width:4;}
	.st1{fill-rule:evenodd;clip-rule:evenodd;fill:#E5261F;}
	.st2{display:none;fill:#E5261F;}
</style>
<title>logo-mobile</title>
<g id="Page-1">
	<g id="logo-mobile">
		<rect id="Rectangle-6" x="2" y="2" class="st0" width="50" height="50"/>
		<path class="st1" d="M34.4,41.9c-0.5-0.5-0.7-1.2-0.7-1.9s0.2-1.4,0.7-1.9c0.5-0.5,1.1-0.8,1.7-0.8c0.7,0,1.3,0.3,1.7,0.8
			c0.5,0.5,0.7,1.2,0.7,1.9s-0.2,1.4-0.7,1.9s-1.1,0.8-1.7,0.8S34.9,42.4,34.4,41.9z"/>
		<path id="S" class="st2" d="M20.7,42.6c1.6,0,3.1-0.3,4.5-0.9c1.3-0.6,2.4-1.5,3.2-2.6c0.8-1.2,1.2-2.7,1.2-4.5
			c0-1.5-0.3-2.8-1-3.9c-0.7-1.1-1.6-2-2.7-2.9c-1.1-0.9-2.4-1.8-3.9-2.7c-1.3-0.8-2.4-1.5-3.5-2.2c-1.1-0.7-1.9-1.5-2.6-2.3
			c-0.6-0.9-1-1.9-1-3.2c0-1.5,0.5-2.6,1.4-3.5s2.2-1.3,3.7-1.3c1.6,0,2.8,0.4,3.8,1.2s1.7,1.8,2.2,3s0.8,2.5,0.9,3.9l0,0h1
			c0-1.8,0-3.2,0-4.3c0-1.1,0-1.9,0.1-2.6s0.1-1.2,0.1-1.7l0,0h-1c-0.2,1.2-0.5,1.8-0.9,1.8c-0.2,0-0.4,0-0.6-0.1
			c-0.2-0.1-0.5-0.2-0.8-0.4c-0.6-0.4-1.2-0.7-1.9-1.1c-0.7-0.3-1.8-0.5-3.2-0.5c-1.4,0-2.7,0.3-3.9,0.8c-1.2,0.5-2.2,1.3-2.9,2.4
			c-0.7,1.1-1.1,2.4-1.1,4.1c0,1.6,0.3,2.9,1,4c0.7,1.1,1.6,2.1,2.8,2.9c1.1,0.8,2.4,1.7,3.7,2.5c2,1.2,3.5,2.3,4.7,3.4
			c1.2,1.1,1.8,2.5,1.8,4.2c0,2-0.6,3.4-1.7,4.3c-1.1,0.9-2.4,1.3-3.8,1.3c-1.8,0-3.2-0.4-4.3-1.3c-1.1-0.9-1.9-2.1-2.4-3.5
			c-0.5-1.5-0.8-3-0.9-4.7l0,0h-1c0,2,0,3.6,0,4.9c0,1.3,0,2.3,0,3.1s0,1.5-0.1,2.1l0,0h1c0.2-1.2,0.5-1.8,0.9-1.8
			c0.3,0,0.8,0.2,1.4,0.6c0.6,0.4,1.4,0.7,2.2,1S19.2,42.6,20.7,42.6z"/>
	</g>
</g>
<g>
	<g>
		<path d="M15,42.8v-0.7c0.9-0.1,1.7-0.4,2.4-0.8c0.7-0.5,1.2-1.2,1.5-2.3c0.4-1.1,0.5-2.6,0.5-4.6V15.2c0-0.9-0.1-1.5-0.2-1.9
			c-0.1-0.4-0.4-0.7-0.8-0.8c-0.4-0.2-0.9-0.2-1.7-0.3v-0.7c0.6,0,1.3,0,2.3,0.1c0.9,0,1.9,0,3,0c1,0,2.1,0,3.1,0c1,0,1.8,0,2.5-0.1
			v0.7c-0.7,0-1.3,0.1-1.7,0.3c-0.4,0.2-0.6,0.4-0.8,0.8c-0.1,0.4-0.2,1-0.2,1.9V28c0,1,0,2,0,3.1s0,2.2-0.1,3.2
			c-0.1,1-0.2,2-0.5,2.8c-0.5,1.6-1.5,3-3,4.1C19.8,42.3,17.7,42.8,15,42.8z"/>
	</g>
</g>
</svg>
